<svg xmlns="http://www.w3.org/2000/svg" xmlns:xlink="http://www.w3.org/1999/xlink" width="503" zoomAndPan="magnify" viewBox="0 0 377.25 162.75" height="217" preserveAspectRatio="xMidYMid meet" version="1.0"><defs><g/><clipPath id="690546d426"><path d="M 78 37.796875 L 85 37.796875 L 85 45 L 78 45 Z M 78 37.796875 " clip-rule="nonzero"/></clipPath><clipPath id="260a8f7bfe"><path d="M 78 118 L 85 118 L 85 124.621094 L 78 124.621094 Z M 78 118 " clip-rule="nonzero"/></clipPath><clipPath id="b216390b2a"><path d="M 118 78 L 124.640625 78 L 124.640625 85 L 118 85 Z M 118 78 " clip-rule="nonzero"/></clipPath><clipPath id="fd3ccbcc21"><path d="M 37.816406 78 L 45 78 L 45 85 L 37.816406 85 Z M 37.816406 78 " clip-rule="nonzero"/></clipPath></defs><path fill="#01297f" d="M 95.207031 90.207031 C 96.777344 88.453125 96.789062 85.847656 95.339844 84.082031 C 97.027344 81.898438 98.382812 79.574219 99.386719 77.140625 C 100.648438 74.070312 101.351562 70.816406 101.480469 67.472656 C 101.621094 63.671875 100.992188 60.65625 100.535156 59.015625 C 101.574219 57.929688 101.820312 56.246094 101.03125 54.875 C 100.070312 53.210938 97.941406 52.640625 96.277344 53.601562 C 94.613281 54.5625 94.042969 56.691406 95.003906 58.355469 C 95.914062 59.929688 97.863281 60.523438 99.480469 59.773438 C 99.898438 61.410156 100.402344 64.152344 100.269531 67.480469 C 100.203125 69.128906 99.972656 71.035156 99.441406 73.101562 C 99.238281 72.527344 99.011719 71.957031 98.757812 71.394531 C 97.535156 68.675781 96.042969 66.777344 95.148438 65.78125 C 95.5 64.65625 95.089844 63.386719 94.054688 62.703125 C 92.800781 61.867188 91.109375 62.207031 90.273438 63.464844 C 89.441406 64.71875 89.78125 66.410156 91.035156 67.246094 C 92.222656 68.035156 93.796875 67.773438 94.671875 66.679688 C 95.535156 67.6875 96.84375 69.4375 97.910156 71.820312 C 98.292969 72.671875 98.660156 73.648438 98.964844 74.742188 C 98.085938 77.441406 96.671875 80.347656 94.449219 83.25 C 92.519531 81.855469 89.8125 82.117188 88.191406 83.933594 C 86.457031 85.871094 86.625 88.847656 88.5625 90.578125 C 90.5 92.3125 93.476562 92.144531 95.207031 90.207031 " fill-opacity="1" fill-rule="nonzero"/><path fill="#00adef" d="M 80.425781 97.816406 C 82.730469 98.296875 84.992188 97.003906 85.792969 94.863281 C 88.53125 95.238281 91.222656 95.25 93.828125 94.898438 C 97.121094 94.457031 100.292969 93.441406 103.25 91.878906 C 106.613281 90.101562 108.910156 88.046875 110.101562 86.835938 C 111.5625 87.191406 113.144531 86.5625 113.9375 85.191406 C 114.894531 83.527344 114.328125 81.398438 112.660156 80.441406 C 110.996094 79.480469 108.871094 80.046875 107.910156 81.710938 C 107 83.285156 107.460938 85.273438 108.921875 86.296875 C 107.707031 87.476562 105.585938 89.285156 102.640625 90.832031 C 101.179688 91.601562 99.410156 92.355469 97.355469 92.929688 C 97.753906 92.464844 98.132812 91.980469 98.492188 91.480469 C 100.234375 89.0625 101.136719 86.820312 101.550781 85.550781 C 102.699219 85.292969 103.589844 84.300781 103.671875 83.0625 C 103.765625 81.5625 102.621094 80.265625 101.121094 80.167969 C 99.617188 80.074219 98.320312 81.214844 98.226562 82.71875 C 98.136719 84.140625 99.152344 85.375 100.53125 85.585938 C 100.089844 86.839844 99.230469 88.847656 97.699219 90.960938 C 97.152344 91.71875 96.492188 92.527344 95.699219 93.335938 C 92.921875 93.925781 89.699219 94.152344 86.070312 93.679688 C 86.3125 91.3125 84.730469 89.097656 82.351562 88.597656 C 79.804688 88.066406 77.3125 89.699219 76.78125 92.246094 C 76.25 94.789062 77.878906 97.285156 80.425781 97.816406 " fill-opacity="1" fill-rule="nonzero"/><path fill="#01297f" d="M 66.445312 88.816406 C 67.179688 91.054688 69.433594 92.367188 71.683594 91.992188 C 72.730469 94.546875 74.066406 96.882812 75.671875 98.96875 C 77.703125 101.597656 80.167969 103.835938 83 105.613281 C 86.21875 107.636719 89.144531 108.601562 90.792969 109.027344 C 91.21875 110.472656 92.550781 111.527344 94.132812 111.527344 C 96.054688 111.527344 97.613281 109.96875 97.613281 108.046875 C 97.613281 106.125 96.054688 104.566406 94.132812 104.566406 C 92.316406 104.566406 90.824219 105.960938 90.667969 107.734375 C 89.039062 107.277344 86.414062 106.34375 83.597656 104.5625 C 82.203125 103.683594 80.664062 102.53125 79.140625 101.035156 C 79.742188 101.148438 80.351562 101.234375 80.964844 101.296875 C 83.929688 101.597656 86.324219 101.253906 87.628906 100.980469 C 88.429688 101.84375 89.730469 102.121094 90.84375 101.570312 C 92.191406 100.902344 92.742188 99.265625 92.074219 97.914062 C 91.40625 96.566406 89.769531 96.015625 88.417969 96.683594 C 87.144531 97.316406 86.582031 98.8125 87.089844 100.117188 C 85.785156 100.359375 83.617188 100.617188 81.019531 100.351562 C 80.089844 100.253906 79.058594 100.085938 77.960938 99.804688 C 76.0625 97.691406 74.253906 95.015625 72.851562 91.636719 C 75.023438 90.664062 76.148438 88.1875 75.390625 85.875 C 74.578125 83.40625 71.917969 82.0625 69.449219 82.875 C 66.976562 83.6875 65.632812 86.347656 66.445312 88.816406 " fill-opacity="1" fill-rule="nonzero"/><path fill="#00adef" d="M 67.25 72.210938 C 65.679688 73.964844 65.667969 76.570312 67.121094 78.335938 C 65.429688 80.519531 64.074219 82.84375 63.070312 85.277344 C 61.808594 88.347656 61.105469 91.601562 60.976562 94.945312 C 60.835938 98.746094 61.464844 101.761719 61.921875 103.402344 C 60.882812 104.488281 60.636719 106.171875 61.425781 107.542969 C 62.386719 109.207031 64.515625 109.777344 66.179688 108.816406 C 67.84375 107.855469 68.414062 105.726562 67.453125 104.0625 C 66.542969 102.488281 64.59375 101.894531 62.976562 102.644531 C 62.558594 101.007812 62.054688 98.265625 62.1875 94.9375 C 62.253906 93.289062 62.484375 91.382812 63.015625 89.316406 C 63.21875 89.894531 63.445312 90.460938 63.699219 91.023438 C 64.921875 93.742188 66.417969 95.644531 67.308594 96.636719 C 66.957031 97.761719 67.371094 99.03125 68.402344 99.714844 C 69.65625 100.550781 71.347656 100.210938 72.183594 98.953125 C 73.019531 97.699219 72.675781 96.007812 71.421875 95.171875 C 70.238281 94.382812 68.660156 94.644531 67.785156 95.738281 C 66.921875 94.730469 65.613281 92.980469 64.546875 90.597656 C 64.164062 89.746094 63.796875 88.769531 63.492188 87.675781 C 64.371094 84.976562 65.785156 82.070312 68.007812 79.167969 C 69.9375 80.5625 72.644531 80.300781 74.269531 78.484375 C 76 76.546875 75.832031 73.570312 73.894531 71.839844 C 71.957031 70.105469 68.980469 70.273438 67.25 72.210938 " fill-opacity="1" fill-rule="nonzero"/><path fill="#01297f" d="M 82.03125 64.601562 C 79.726562 64.121094 77.464844 65.414062 76.664062 67.554688 C 73.925781 67.179688 71.234375 67.167969 68.628906 67.519531 C 65.335938 67.960938 62.164062 68.976562 59.207031 70.539062 C 55.847656 72.316406 53.546875 74.371094 52.355469 75.582031 C 50.894531 75.226562 49.3125 75.855469 48.523438 77.226562 C 47.5625 78.890625 48.132812 81.019531 49.796875 81.976562 C 51.460938 82.941406 53.585938 82.371094 54.546875 80.707031 C 55.457031 79.132812 54.996094 77.144531 53.535156 76.121094 C 54.75 74.941406 56.871094 73.132812 59.816406 71.585938 C 61.277344 70.816406 63.046875 70.0625 65.101562 69.488281 C 64.703125 69.953125 64.324219 70.4375 63.964844 70.9375 C 62.222656 73.355469 61.324219 75.597656 60.90625 76.867188 C 59.757812 77.125 58.867188 78.117188 58.789062 79.355469 C 58.691406 80.859375 59.835938 82.152344 61.335938 82.25 C 62.839844 82.34375 64.136719 81.203125 64.234375 79.699219 C 64.324219 78.277344 63.308594 77.042969 61.925781 76.832031 C 62.367188 75.578125 63.226562 73.570312 64.757812 71.457031 C 65.304688 70.699219 65.964844 69.894531 66.757812 69.082031 C 69.535156 68.496094 72.757812 68.265625 76.386719 68.738281 C 76.144531 71.105469 77.726562 73.320312 80.105469 73.820312 C 82.652344 74.351562 85.144531 72.71875 85.675781 70.171875 C 86.207031 67.628906 84.578125 65.132812 82.03125 64.601562 " fill-opacity="1" fill-rule="nonzero"/><path fill="#00adef" d="M 96.011719 73.601562 C 95.277344 71.363281 93.023438 70.050781 90.773438 70.425781 C 89.726562 67.871094 88.390625 65.535156 86.785156 63.453125 C 84.753906 60.820312 82.289062 58.585938 79.457031 56.804688 C 76.238281 54.78125 73.3125 53.816406 71.664062 53.390625 C 71.242188 51.945312 69.90625 50.894531 68.324219 50.894531 C 66.402344 50.894531 64.84375 52.449219 64.84375 54.371094 C 64.84375 56.292969 66.402344 57.851562 68.324219 57.851562 C 70.140625 57.851562 71.632812 56.457031 71.789062 54.683594 C 73.417969 55.140625 76.042969 56.078125 78.859375 57.855469 C 80.253906 58.734375 81.792969 59.886719 83.316406 61.382812 C 82.714844 61.269531 82.105469 61.183594 81.492188 61.121094 C 78.527344 60.820312 76.136719 61.164062 74.828125 61.4375 C 74.027344 60.574219 72.726562 60.296875 71.613281 60.847656 C 70.265625 61.515625 69.714844 63.152344 70.382812 64.503906 C 71.050781 65.851562 72.6875 66.402344 74.039062 65.734375 C 75.316406 65.101562 75.875 63.605469 75.367188 62.300781 C 76.671875 62.058594 78.839844 61.800781 81.441406 62.066406 C 82.367188 62.164062 83.398438 62.332031 84.496094 62.613281 C 86.394531 64.726562 88.203125 67.402344 89.605469 70.78125 C 87.433594 71.753906 86.308594 74.230469 87.066406 76.542969 C 87.878906 79.011719 90.539062 80.355469 93.007812 79.542969 C 95.480469 78.730469 96.824219 76.070312 96.011719 73.601562 " fill-opacity="1" fill-rule="nonzero"/><g clip-path="url(#690546d426)"><path fill="#01297f" d="M 84.390625 40.957031 C 84.390625 42.703125 82.972656 44.117188 81.230469 44.117188 C 79.484375 44.117188 78.066406 42.703125 78.066406 40.957031 C 78.066406 39.210938 79.484375 37.796875 81.230469 37.796875 C 82.972656 37.796875 84.390625 39.210938 84.390625 40.957031 " fill-opacity="1" fill-rule="nonzero"/></g><g clip-path="url(#260a8f7bfe)"><path fill="#01297f" d="M 84.390625 121.460938 C 84.390625 123.207031 82.972656 124.621094 81.230469 124.621094 C 79.484375 124.621094 78.066406 123.207031 78.066406 121.460938 C 78.066406 119.714844 79.484375 118.300781 81.230469 118.300781 C 82.972656 118.300781 84.390625 119.714844 84.390625 121.460938 " fill-opacity="1" fill-rule="nonzero"/></g><g clip-path="url(#b216390b2a)"><path fill="#01297f" d="M 121.480469 84.371094 C 119.734375 84.371094 118.320312 82.953125 118.320312 81.210938 C 118.320312 79.464844 119.734375 78.046875 121.480469 78.046875 C 123.226562 78.046875 124.640625 79.464844 124.640625 81.210938 C 124.640625 82.953125 123.226562 84.371094 121.480469 84.371094 " fill-opacity="1" fill-rule="nonzero"/></g><g clip-path="url(#fd3ccbcc21)"><path fill="#01297f" d="M 40.976562 84.371094 C 39.230469 84.371094 37.816406 82.953125 37.816406 81.210938 C 37.816406 79.464844 39.230469 78.046875 40.976562 78.046875 C 42.722656 78.046875 44.136719 79.464844 44.136719 81.210938 C 44.136719 82.953125 42.722656 84.371094 40.976562 84.371094 " fill-opacity="1" fill-rule="nonzero"/></g><path fill="#01297f" d="M 111.925781 54.980469 C 110.691406 56.214844 108.691406 56.214844 107.457031 54.980469 C 106.222656 53.746094 106.222656 51.746094 107.457031 50.511719 C 108.691406 49.277344 110.691406 49.277344 111.925781 50.511719 C 113.160156 51.746094 113.160156 53.746094 111.925781 54.980469 " fill-opacity="1" fill-rule="nonzero"/><path fill="#01297f" d="M 55 111.90625 C 53.765625 113.140625 51.765625 113.140625 50.53125 111.90625 C 49.296875 110.671875 49.296875 108.671875 50.53125 107.4375 C 51.765625 106.203125 53.765625 106.203125 55 107.4375 C 56.234375 108.671875 56.234375 110.671875 55 111.90625 " fill-opacity="1" fill-rule="nonzero"/><path fill="#01297f" d="M 107.457031 111.90625 C 106.222656 110.671875 106.222656 108.671875 107.457031 107.4375 C 108.691406 106.203125 110.691406 106.203125 111.925781 107.4375 C 113.160156 108.671875 113.160156 110.671875 111.925781 111.90625 C 110.691406 113.140625 108.691406 113.140625 107.457031 111.90625 " fill-opacity="1" fill-rule="nonzero"/><path fill="#01297f" d="M 50.53125 54.980469 C 49.296875 53.746094 49.296875 51.746094 50.53125 50.511719 C 51.765625 49.277344 53.765625 49.277344 55 50.511719 C 56.234375 51.746094 56.234375 53.746094 55 54.980469 C 53.765625 56.214844 51.765625 56.214844 50.53125 54.980469 " fill-opacity="1" fill-rule="nonzero"/><path fill="#00adef" d="M 100.007812 45.464844 C 99.320312 47.070312 97.460938 47.8125 95.855469 47.121094 C 94.253906 46.433594 93.511719 44.574219 94.199219 42.972656 C 94.886719 41.367188 96.746094 40.625 98.347656 41.3125 C 99.953125 42.003906 100.695312 43.859375 100.007812 45.464844 " fill-opacity="1" fill-rule="nonzero"/><path fill="#00adef" d="M 68.257812 119.445312 C 67.570312 121.050781 65.710938 121.792969 64.109375 121.105469 C 62.503906 120.414062 61.761719 118.558594 62.449219 116.953125 C 63.136719 115.347656 64.996094 114.605469 66.601562 115.296875 C 68.207031 115.984375 68.949219 117.84375 68.257812 119.445312 " fill-opacity="1" fill-rule="nonzero"/><path fill="#00adef" d="M 116.972656 99.988281 C 115.367188 99.300781 114.625 97.441406 115.316406 95.835938 C 116.003906 94.234375 117.863281 93.492188 119.464844 94.179688 C 121.070312 94.867188 121.8125 96.726562 121.125 98.328125 C 120.433594 99.933594 118.578125 100.675781 116.972656 99.988281 " fill-opacity="1" fill-rule="nonzero"/><path fill="#00adef" d="M 42.992188 68.238281 C 41.386719 67.550781 40.644531 65.691406 41.332031 64.089844 C 42.023438 62.484375 43.878906 61.742188 45.484375 62.429688 C 47.089844 63.117188 47.832031 64.976562 47.140625 66.582031 C 46.453125 68.1875 44.59375 68.929688 42.992188 68.238281 " fill-opacity="1" fill-rule="nonzero"/><path fill="#00adef" d="M 119.78125 69.210938 C 118.160156 69.859375 116.320312 69.070312 115.675781 67.449219 C 115.027344 65.828125 115.816406 63.988281 117.4375 63.34375 C 119.058594 62.695312 120.898438 63.484375 121.542969 65.105469 C 122.191406 66.726562 121.402344 68.566406 119.78125 69.210938 " fill-opacity="1" fill-rule="nonzero"/><path fill="#00adef" d="M 45.019531 99.078125 C 43.398438 99.722656 41.558594 98.933594 40.914062 97.3125 C 40.265625 95.691406 41.054688 93.851562 42.675781 93.207031 C 44.296875 92.558594 46.136719 93.347656 46.78125 94.96875 C 47.429688 96.589844 46.640625 98.429688 45.019531 99.078125 " fill-opacity="1" fill-rule="nonzero"/><path fill="#00adef" d="M 83.625 50.699219 C 83.625 52.023438 82.550781 53.09375 81.230469 53.09375 C 79.90625 53.09375 78.832031 52.023438 78.832031 50.699219 C 78.832031 49.375 79.90625 48.304688 81.230469 48.304688 C 82.550781 48.304688 83.625 49.375 83.625 50.699219 " fill-opacity="1" fill-rule="nonzero"/><path fill="#00adef" d="M 83.625 111.71875 C 83.625 113.042969 82.550781 114.113281 81.230469 114.113281 C 79.90625 114.113281 78.832031 113.042969 78.832031 111.71875 C 78.832031 110.394531 79.90625 109.324219 81.230469 109.324219 C 82.550781 109.324219 83.625 110.394531 83.625 111.71875 " fill-opacity="1" fill-rule="nonzero"/><path fill="#00adef" d="M 101.109375 104.476562 C 100.171875 103.542969 100.171875 102.023438 101.109375 101.089844 C 102.042969 100.152344 103.5625 100.152344 104.496094 101.089844 C 105.433594 102.023438 105.433594 103.542969 104.496094 104.476562 C 103.5625 105.414062 102.042969 105.414062 101.109375 104.476562 " fill-opacity="1" fill-rule="nonzero"/><path fill="#00adef" d="M 57.960938 61.328125 C 57.027344 60.394531 57.027344 58.878906 57.960938 57.941406 C 58.898438 57.007812 60.414062 57.007812 61.347656 57.941406 C 62.285156 58.878906 62.285156 60.394531 61.347656 61.328125 C 60.414062 62.265625 58.898438 62.265625 57.960938 61.328125 " fill-opacity="1" fill-rule="nonzero"/><path fill="#00adef" d="M 110.449219 72.117188 C 109.222656 72.605469 107.828125 72.007812 107.335938 70.78125 C 106.847656 69.550781 107.445312 68.15625 108.671875 67.667969 C 109.902344 67.175781 111.296875 67.773438 111.785156 69.003906 C 112.277344 70.230469 111.679688 71.625 110.449219 72.117188 " fill-opacity="1" fill-rule="nonzero"/><path fill="#00adef" d="M 53.785156 94.75 C 52.554688 95.242188 51.160156 94.644531 50.671875 93.414062 C 50.179688 92.1875 50.777344 90.792969 52.007812 90.300781 C 53.234375 89.8125 54.628906 90.410156 55.121094 91.636719 C 55.613281 92.867188 55.011719 94.261719 53.785156 94.75 " fill-opacity="1" fill-rule="nonzero"/><path fill="#00adef" d="M 93.226562 119.761719 C 92.578125 118.140625 93.367188 116.300781 94.988281 115.65625 C 96.609375 115.007812 98.449219 115.796875 99.097656 117.417969 C 99.742188 119.039062 98.953125 120.878906 97.332031 121.523438 C 95.710938 122.171875 93.871094 121.382812 93.226562 119.761719 " fill-opacity="1" fill-rule="nonzero"/><path fill="#00adef" d="M 63.363281 45 C 62.714844 43.378906 63.503906 41.539062 65.125 40.894531 C 66.746094 40.246094 68.585938 41.035156 69.230469 42.65625 C 69.878906 44.277344 69.089844 46.117188 67.46875 46.761719 C 65.847656 47.410156 64.007812 46.621094 63.363281 45 " fill-opacity="1" fill-rule="nonzero"/><g fill="#01297f" fill-opacity="1"><g transform="translate(132.374515, 93.253422)"><g><path d="M 5.375 -6.40625 C 5.375 -5.375 5.753906 -4.554688 6.515625 -3.953125 C 7.273438 -3.347656 8.363281 -3.046875 9.78125 -3.046875 C 11.1875 -3.046875 12.257812 -3.269531 13 -3.71875 C 13.738281 -4.175781 14.109375 -4.851562 14.109375 -5.75 C 14.109375 -6.269531 13.914062 -6.722656 13.53125 -7.109375 C 13.15625 -7.492188 12.253906 -7.859375 10.828125 -8.203125 L 7.28125 -9.03125 C 5.050781 -9.550781 3.53125 -10.265625 2.71875 -11.171875 C 1.914062 -12.085938 1.515625 -13.347656 1.515625 -14.953125 C 1.515625 -16.828125 2.179688 -18.359375 3.515625 -19.546875 C 4.847656 -20.742188 6.847656 -21.34375 9.515625 -21.34375 C 12.171875 -21.34375 14.179688 -20.671875 15.546875 -19.328125 C 16.921875 -17.992188 17.613281 -16.425781 17.625 -14.625 L 13.453125 -14.625 C 13.359375 -15.644531 12.960938 -16.421875 12.265625 -16.953125 C 11.566406 -17.484375 10.539062 -17.75 9.1875 -17.75 C 8.101562 -17.75 7.226562 -17.523438 6.5625 -17.078125 C 5.90625 -16.628906 5.578125 -16.023438 5.578125 -15.265625 C 5.578125 -14.734375 5.722656 -14.289062 6.015625 -13.9375 C 6.304688 -13.59375 6.773438 -13.34375 7.421875 -13.1875 L 12.984375 -11.8125 C 14.992188 -11.320312 16.378906 -10.613281 17.140625 -9.6875 C 17.910156 -8.769531 18.296875 -7.625 18.296875 -6.25 C 18.296875 -3.988281 17.507812 -2.289062 15.9375 -1.15625 C 14.363281 -0.0195312 12.414062 0.546875 10.09375 0.546875 C 7.09375 0.546875 4.859375 -0.0859375 3.390625 -1.359375 C 1.929688 -2.640625 1.203125 -4.320312 1.203125 -6.40625 Z M 5.375 -6.40625 "/></g></g></g><g fill="#01297f" fill-opacity="1"><g transform="translate(153.265728, 93.253422)"><g><path d="M 6.46875 0 L 2.125 0 L 2.125 -20.796875 L 6.46875 -20.796875 Z M 6.46875 0 "/></g></g></g><g fill="#01297f" fill-opacity="1"><g transform="translate(163.325951, 93.253422)"><g><path d="M 22.296875 0 L 18.234375 0 L 18.234375 -14.046875 L 18.296875 -17.390625 L 18.171875 -17.390625 L 14.28125 0 L 10.03125 0 L 6.234375 -17.390625 L 6.140625 -17.390625 L 6.1875 -14.046875 L 6.1875 0 L 2.125 0 L 2.125 -20.796875 L 8.46875 -20.796875 L 12.21875 -4.40625 L 12.3125 -4.40625 L 16 -20.796875 L 22.296875 -20.796875 Z M 22.296875 0 "/></g></g></g><g fill="#01297f" fill-opacity="1"><g transform="translate(189.208468, 93.253422)"><g><path d="M 10.5 -11.09375 C 11.601562 -11.09375 12.414062 -11.347656 12.9375 -11.859375 C 13.46875 -12.367188 13.734375 -13.164062 13.734375 -14.25 C 13.734375 -15.332031 13.429688 -16.097656 12.828125 -16.546875 C 12.234375 -16.992188 11.347656 -17.21875 10.171875 -17.21875 L 6.46875 -17.21875 L 6.46875 -11.09375 Z M 6.46875 0 L 2.125 0 L 2.125 -20.796875 L 11.609375 -20.796875 C 13.585938 -20.796875 15.160156 -20.203125 16.328125 -19.015625 C 17.492188 -17.828125 18.078125 -16.195312 18.078125 -14.125 C 18.078125 -12.34375 17.503906 -10.789062 16.359375 -9.46875 C 15.222656 -8.15625 13.582031 -7.5 11.4375 -7.5 L 6.46875 -7.5 Z M 6.46875 0 "/></g></g></g><g fill="#01297f" fill-opacity="1"><g transform="translate(209.816889, 93.253422)"><g><path d="M 6.46875 -3.765625 L 16.796875 -3.765625 L 16.796875 0 L 2.125 0 L 2.125 -20.796875 L 6.46875 -20.796875 Z M 6.46875 -3.765625 "/></g></g></g><g fill="#01297f" fill-opacity="1"><g transform="translate(228.587153, 93.253422)"><g><path d="M 17.40625 -17.109375 L 6.375 -17.109375 L 6.375 -12.75 L 16.515625 -12.75 L 16.515625 -9.0625 L 6.375 -9.0625 L 6.375 -3.671875 L 17.90625 -3.671875 L 17.90625 0 L 2.125 0 L 2.125 -20.796875 L 17.40625 -20.796875 Z M 17.40625 -17.109375 "/></g></g></g><g fill="#01297f" fill-opacity="1"><g transform="translate(249.237987, 93.253422)"><g/></g></g><g fill="#01297f" fill-opacity="1"><g transform="translate(258.492244, 93.253422)"><g><path d="M 7.546875 -7.875 L 12.84375 -7.875 L 10.25 -16.109375 L 10.203125 -16.109375 Z M 4.9375 0 L 0.359375 0 L 7.765625 -20.796875 L 12.78125 -20.796875 L 20.109375 0 L 15.390625 0 L 14.0625 -4.28125 L 6.375 -4.28125 Z M 4.9375 0 "/></g></g></g><g fill="#01297f" fill-opacity="1"><g transform="translate(280.429789, 93.253422)"><g><path d="M 10.5 -11.09375 C 11.601562 -11.09375 12.414062 -11.347656 12.9375 -11.859375 C 13.46875 -12.367188 13.734375 -13.164062 13.734375 -14.25 C 13.734375 -15.332031 13.429688 -16.097656 12.828125 -16.546875 C 12.234375 -16.992188 11.347656 -17.21875 10.171875 -17.21875 L 6.46875 -17.21875 L 6.46875 -11.09375 Z M 6.46875 0 L 2.125 0 L 2.125 -20.796875 L 11.609375 -20.796875 C 13.585938 -20.796875 15.160156 -20.203125 16.328125 -19.015625 C 17.492188 -17.828125 18.078125 -16.195312 18.078125 -14.125 C 18.078125 -12.34375 17.503906 -10.789062 16.359375 -9.46875 C 15.222656 -8.15625 13.582031 -7.5 11.4375 -7.5 L 6.46875 -7.5 Z M 6.46875 0 "/></g></g></g><g fill="#01297f" fill-opacity="1"><g transform="translate(301.038204, 93.253422)"><g><path d="M 10.5 -11.09375 C 11.601562 -11.09375 12.414062 -11.347656 12.9375 -11.859375 C 13.46875 -12.367188 13.734375 -13.164062 13.734375 -14.25 C 13.734375 -15.332031 13.429688 -16.097656 12.828125 -16.546875 C 12.234375 -16.992188 11.347656 -17.21875 10.171875 -17.21875 L 6.46875 -17.21875 L 6.46875 -11.09375 Z M 6.46875 0 L 2.125 0 L 2.125 -20.796875 L 11.609375 -20.796875 C 13.585938 -20.796875 15.160156 -20.203125 16.328125 -19.015625 C 17.492188 -17.828125 18.078125 -16.195312 18.078125 -14.125 C 18.078125 -12.34375 17.503906 -10.789062 16.359375 -9.46875 C 15.222656 -8.15625 13.582031 -7.5 11.4375 -7.5 L 6.46875 -7.5 Z M 6.46875 0 "/></g></g></g></svg>