<svg width="661" height="155" xmlns="http://www.w3.org/2000/svg" xmlns:xlink="http://www.w3.org/1999/xlink" xml:space="preserve" overflow="hidden"><defs><clipPath id="clip0"><rect x="61" y="191" width="661" height="155"/></clipPath><clipPath id="clip1"><rect x="61" y="199" width="150" height="152"/></clipPath><clipPath id="clip2"><rect x="61" y="199" width="150" height="152"/></clipPath><clipPath id="clip3"><rect x="61" y="199" width="150" height="152"/></clipPath><clipPath id="clip4"><rect x="61" y="199" width="150" height="152"/></clipPath><clipPath id="clip5"><rect x="210" y="143" width="512" height="265"/></clipPath><clipPath id="clip6"><rect x="210" y="143" width="512" height="265"/></clipPath></defs><g clip-path="url(#clip0)" transform="translate(-61 -191)"><g clip-path="url(#clip1)"><g clip-path="url(#clip2)"><g clip-path="url(#clip3)"><g clip-path="url(#clip4)"><path d="M139.982 132.63C142.29 130.052 142.308 126.221 140.176 123.625 142.658 120.415 144.651 116.997 146.127 113.419 147.981 108.904 149.016 104.12 149.205 99.2041 149.413 93.616 148.488 89.1821 147.816 86.7698 149.343 85.1733 149.705 82.6979 148.545 80.6819 147.132 78.2354 144.002 77.3968 141.555 78.8099 139.109 80.2224 138.27 83.3526 139.683 85.799 141.021 88.114 143.887 88.9868 146.265 87.884 146.879 90.2906 147.62 94.3226 147.425 99.2155 147.328 101.639 146.989 104.442 146.207 107.48 145.909 106.636 145.575 105.798 145.203 104.97 143.405 100.973 141.211 98.1821 139.896 96.7172 140.412 95.0633 139.81 93.1964 138.287 92.1916 136.444 90.9624 133.957 91.4622 132.728 93.3115 131.505 95.155 132.004 97.6418 133.848 98.871 135.593 100.031 137.908 99.6465 139.195 98.0381 140.464 99.5201 142.388 102.093 143.956 105.597 144.519 106.849 145.059 108.284 145.507 109.892 144.214 113.861 142.135 118.134 138.867 122.401 136.03 120.35 132.05 120.736 129.666 123.407 127.116 126.256 127.363 130.632 130.212 133.176 133.061 135.726 137.437 135.479 139.982 132.63" fill="#01297F" transform="matrix(1 0 0 1.00376 16.2387 154.197)"/><path d="M118.249 143.818C121.638 144.524 124.963 142.624 126.141 139.476 130.166 140.027 134.124 140.045 137.954 139.528 142.796 138.879 147.459 137.386 151.807 135.088 156.752 132.475 160.129 129.454 161.881 127.674 164.029 128.197 166.355 127.272 167.521 125.255 168.928 122.809 168.095 119.679 165.643 118.272 163.196 116.859 160.072 117.692 158.659 120.139 157.321 122.454 157.998 125.376 160.146 126.881 158.36 128.615 155.241 131.275 150.911 133.549 148.763 134.681 146.162 135.789 143.14 136.633 143.727 135.95 144.284 135.237 144.811 134.502 147.373 130.947 148.7 127.651 149.309 125.785 150.997 125.404 152.307 123.946 152.427 122.125 152.565 119.921 150.882 118.014 148.677 117.87 146.466 117.732 144.559 119.409 144.421 121.62 144.289 123.711 145.783 125.526 147.81 125.835 147.16 127.679 145.897 130.632 143.646 133.739 142.841 134.853 141.871 136.042 140.706 137.231 136.622 138.098 131.884 138.431 126.548 137.736 126.904 134.255 124.578 130.999 121.08 130.264 117.335 129.483 113.672 131.884 112.89 135.629 112.109 139.367 114.504 143.037 118.249 143.818" fill="#00ADEF" transform="matrix(1 0 0 1.00376 16.2387 154.197)"/><path d="M97.6936 130.585C98.7731 133.876 102.087 135.806 105.396 135.255 106.935 139.011 108.899 142.446 111.259 145.512 114.246 149.377 117.87 152.669 122.033 155.282 126.766 158.256 131.069 159.675 133.492 160.302 134.118 162.427 136.076 163.977 138.402 163.977 141.229 163.977 143.52 161.685 143.52 158.86 143.52 156.035 141.229 153.743 138.402 153.743 135.731 153.743 133.538 155.793 133.308 158.4 130.913 157.728 127.053 156.356 122.913 153.737 120.862 152.444 118.599 150.751 116.359 148.551 117.244 148.718 118.14 148.843 119.041 148.935 123.4 149.377 126.922 148.872 128.84 148.47 130.017 149.74 131.929 150.147 133.567 149.338 135.548 148.355 136.358 145.948 135.376 143.962 134.393 141.981 131.986 141.171 130 142.152 128.127 143.083 127.301 145.282 128.047 147.2 126.129 147.557 122.941 147.936 119.122 147.545 117.755 147.402 116.239 147.155 114.625 146.742 111.834 143.634 109.174 139.7 107.113 134.732 110.306 133.303 111.96 129.661 110.846 126.261 109.651 122.631 105.74 120.656 102.11 121.85 98.4748 123.044 96.4992 126.956 97.6936 130.585" fill="#01297F" transform="matrix(1 0 0 1.00376 16.2387 154.197)"/><path d="M98.8767 106.17C96.5681 108.75 96.551 112.581 98.6871 115.176 96.2003 118.387 94.2076 121.803 92.7313 125.382 90.8764 129.896 89.8425 134.681 89.6529 139.596 89.4462 145.185 90.3708 149.619 91.0426 152.031 89.5151 153.628 89.1536 156.103 90.3133 158.12 91.7264 160.566 94.8566 161.405 97.3031 159.991 99.7495 158.578 100.588 155.449 99.1756 153.001 97.8371 150.686 94.9716 149.814 92.5935 150.916 91.9792 148.51 91.2379 144.479 91.4332 139.585 91.5311 137.161 91.8699 134.359 92.651 131.32 92.9499 132.171 93.283 133.003 93.6559 133.831 95.4539 137.827 97.6532 140.625 98.9627 142.084 98.4463 143.738 99.0549 145.604 100.571 146.609 102.415 147.838 104.901 147.339 106.131 145.489 107.36 143.646 106.854 141.159 105.011 139.93 103.27 138.77 100.95 139.154 99.6635 140.763 98.3945 139.281 96.4701 136.708 94.9022 133.204 94.3397 131.952 93.7999 130.517 93.3519 128.908 94.6437 124.939 96.7229 120.666 99.9909 116.399 102.828 118.45 106.808 118.066 109.198 115.395 111.742 112.545 111.494 108.169 108.646 105.625 105.798 103.075 101.421 103.322 98.8767 106.17" fill="#00ADEF" transform="matrix(1 0 0 1.00376 16.2387 154.197)"/><path d="M120.609 94.983C117.221 94.2765 113.896 96.1775 112.718 99.3248 108.692 98.7731 104.735 98.756 100.904 99.273 96.0625 99.922 91.399 101.415 87.051 103.713 82.112 106.326 78.729 109.347 76.9777 111.128 74.8296 110.605 72.5033 111.529 71.3436 113.545 69.9305 115.992 70.7691 119.122 73.2156 120.529 75.662 121.947 78.7865 121.109 80.1996 118.662 81.5376 116.347 80.8601 113.425 78.7119 111.92 80.498 110.185 83.6168 107.526 87.9472 105.252 90.0953 104.12 92.6971 103.012 95.718 102.167 95.1322 102.851 94.5748 103.563 94.0465 104.299 91.485 107.853 90.1642 111.15 89.5498 113.017 87.8612 113.396 86.5517 114.855 86.4367 116.675 86.2932 118.887 87.9756 120.787 90.1812 120.931 92.3925 121.069 94.2993 119.392 94.4427 117.18 94.5748 115.09 93.082 113.276 91.0483 112.965 91.6974 111.121 92.9613 108.169 95.2125 105.063 96.0164 103.948 96.9871 102.765 98.1531 101.57 102.236 100.709 106.975 100.37 112.31 101.065 111.954 104.546 114.28 107.802 117.778 108.537 121.523 109.318 125.187 106.917 125.968 103.173 126.749 99.4341 124.354 95.7642 120.609 94.983" fill="#01297F" transform="matrix(1 0 0 1.00376 16.2387 154.197)"/><path d="M141.164 108.216C140.085 104.924 136.771 102.995 133.463 103.546 131.924 99.7899 129.959 96.3551 127.599 93.2944 124.612 89.4234 120.988 86.1378 116.824 83.5194 112.092 80.5441 107.79 79.1253 105.367 78.4996 104.747 76.3742 102.782 74.8296 100.456 74.8296 97.6304 74.8296 95.3389 77.1155 95.3389 79.9411 95.3389 82.7668 97.6304 85.0583 100.456 85.0583 103.127 85.0583 105.32 83.0082 105.55 80.4006 107.945 81.0724 111.805 82.4508 115.947 85.064 117.996 86.3564 120.259 88.0508 122.499 90.2501 121.615 90.0839 120.719 89.9575 119.817 89.8658 115.458 89.4234 111.943 89.9285 110.019 90.331 108.841 89.0613 106.929 88.6537 105.292 89.4633 103.311 90.4454 102.501 92.852 103.483 94.839 104.465 96.8208 106.871 97.6304 108.858 96.6483 110.737 95.718 111.558 93.5181 110.812 91.6 112.73 91.2436 115.918 90.865 119.742 91.2556 121.103 91.399 122.619 91.6461 124.233 92.0595 127.024 95.1664 129.684 99.1005 131.746 104.068 128.552 105.499 126.898 109.14 128.012 112.54 129.206 116.17 133.118 118.145 136.748 116.951 140.384 115.756 142.36 111.845 141.164 108.216" fill="#00ADEF" transform="matrix(1 0 0 1.00376 16.2387 154.197)"/><path d="M124.078 60.2188C124.078 62.7859 121.993 64.8651 119.433 64.8651 116.864 64.8651 114.779 62.7859 114.779 60.2188 114.779 57.651 116.864 55.5723 119.433 55.5723 121.993 55.5723 124.078 57.651 124.078 60.2188" fill="#01297F" transform="matrix(1 0 0 1.00376 16.2387 154.197)"/><path d="M124.078 178.583C124.078 181.15 121.993 183.229 119.433 183.229 116.864 183.229 114.779 181.15 114.779 178.583 114.779 176.015 116.864 173.936 119.433 173.936 121.993 173.936 124.078 176.015 124.078 178.583" fill="#01297F" transform="matrix(1 0 0 1.00376 16.2387 154.197)"/><path d="M178.612 124.05C176.043 124.05 173.964 121.965 173.964 119.404 173.964 116.836 176.043 114.751 178.612 114.751 181.178 114.751 183.258 116.836 183.258 119.404 183.258 121.965 181.178 124.05 178.612 124.05" fill="#01297F" transform="matrix(1 0 0 1.00376 16.2387 154.197)"/><path d="M60.2472 124.05C57.6801 124.05 55.601 121.965 55.601 119.404 55.601 116.836 57.6801 114.751 60.2472 114.751 62.8144 114.751 64.8936 116.836 64.8936 119.404 64.8936 121.965 62.8144 124.05 60.2472 124.05" fill="#01297F" transform="matrix(1 0 0 1.00376 16.2387 154.197)"/><path d="M164.563 80.8373C162.748 82.6518 159.808 82.6518 157.993 80.8373 156.178 79.0222 156.178 76.0816 157.993 74.2666 159.808 72.4515 162.748 72.4515 164.563 74.2666 166.378 76.0816 166.378 79.0222 164.563 80.8373" fill="#01297F" transform="matrix(1 0 0 1.00376 16.2387 154.197)"/><path d="M80.8658 164.535C79.0507 166.349 76.1101 166.349 74.2956 164.535 72.4806 162.719 72.4806 159.779 74.2956 157.964 76.1101 156.149 79.0507 156.149 80.8658 157.964 82.6808 159.779 82.6808 162.719 80.8658 164.535" fill="#01297F" transform="matrix(1 0 0 1.00376 16.2387 154.197)"/><path d="M157.993 164.535C156.178 162.719 156.178 159.779 157.993 157.964 159.808 156.149 162.748 156.149 164.563 157.964 166.378 159.779 166.378 162.719 164.563 164.535 162.748 166.349 159.808 166.349 157.993 164.535" fill="#01297F" transform="matrix(1 0 0 1.00376 16.2387 154.197)"/><path d="M74.2956 80.8373C72.4806 79.0222 72.4806 76.0816 74.2956 74.2666 76.1101 72.4515 79.0507 72.4515 80.8658 74.2666 82.6808 76.0816 82.6808 79.0222 80.8658 80.8373 79.0507 82.6518 76.1101 82.6518 74.2956 80.8373" fill="#01297F" transform="matrix(1 0 0 1.00376 16.2387 154.197)"/><path d="M147.04 66.8464C146.029 69.2069 143.296 70.2983 140.934 69.2815 138.58 68.2709 137.489 65.5369 138.5 63.1821 139.51 60.8217 142.245 59.7303 144.6 60.7414 146.959 61.7577 148.051 64.4859 147.04 66.8464" fill="#00ADEF" transform="matrix(1 0 0 1.00376 16.2387 154.197)"/><path d="M100.359 175.618C99.3476 177.98 96.6136 179.07 94.2594 178.06 91.8984 177.044 90.8075 174.316 91.8181 171.955 92.8292 169.594 95.5626 168.503 97.9236 169.519 100.284 170.53 101.375 173.264 100.359 175.618" fill="#00ADEF" transform="matrix(1 0 0 1.00376 16.2387 154.197)"/><path d="M171.983 147.011C169.623 146.001 168.531 143.267 169.548 140.907 170.559 138.551 173.292 137.461 175.647 138.471 178.008 139.481 179.099 142.216 178.089 144.571 177.071 146.931 174.343 148.022 171.983 147.011" fill="#00ADEF" transform="matrix(1 0 0 1.00376 16.2387 154.197)"/><path d="M63.2106 100.33C60.8501 99.3191 59.7593 96.5851 60.7699 94.2304 61.7867 91.8699 64.5144 90.7785 66.8749 91.7896 69.2353 92.8002 70.3268 95.5341 69.3105 97.8946 68.2993 100.255 65.5654 101.346 63.2106 100.33" fill="#00ADEF" transform="matrix(1 0 0 1.00376 16.2387 154.197)"/><path d="M176.112 101.76C173.729 102.713 171.024 101.553 170.076 99.1699 169.124 96.7861 170.284 94.0812 172.667 93.1332 175.051 92.1802 177.755 93.3405 178.703 95.7237 179.657 98.107 178.497 100.812 176.112 101.76" fill="#00ADEF" transform="matrix(1 0 0 1.00376 16.2387 154.197)"/><path d="M66.1917 145.673C63.8078 146.62 61.1029 145.46 60.1556 143.077 59.2019 140.693 60.3622 137.988 62.7455 137.04 65.1293 136.087 67.8342 137.247 68.7816 139.632 69.7352 142.015 68.5749 144.72 66.1917 145.673" fill="#00ADEF" transform="matrix(1 0 0 1.00376 16.2387 154.197)"/><path d="M122.953 74.5421C122.953 76.4893 121.373 78.0629 119.433 78.0629 117.485 78.0629 115.906 76.4893 115.906 74.5421 115.906 72.5956 117.485 71.0219 119.433 71.0219 121.373 71.0219 122.953 72.5956 122.953 74.5421" fill="#00ADEF" transform="matrix(1 0 0 1.00376 16.2387 154.197)"/><path d="M122.953 164.258C122.953 166.205 121.373 167.779 119.433 167.779 117.485 167.779 115.906 166.205 115.906 164.258 115.906 162.312 117.485 160.738 119.433 160.738 121.373 160.738 122.953 162.312 122.953 164.258" fill="#00ADEF" transform="matrix(1 0 0 1.00376 16.2387 154.197)"/><path d="M148.66 153.61C147.281 152.238 147.281 150.004 148.66 148.632 150.032 147.253 152.267 147.253 153.639 148.632 155.018 150.004 155.018 152.238 153.639 153.61 152.267 154.989 150.032 154.989 148.66 153.61" fill="#00ADEF" transform="matrix(1 0 0 1.00376 16.2387 154.197)"/><path d="M85.2195 90.1698C83.8468 88.7972 83.8468 86.5688 85.2195 85.1904 86.5978 83.8178 88.8257 83.8178 90.1983 85.1904 91.5772 86.5688 91.5772 88.7972 90.1983 90.1698 88.8257 91.5482 86.5978 91.5482 85.2195 90.1698" fill="#00ADEF" transform="matrix(1 0 0 1.00376 16.2387 154.197)"/><path d="M162.392 106.033C160.589 106.751 158.538 105.872 157.814 104.068 157.097 102.26 157.976 100.209 159.779 99.491 161.588 98.7674 163.639 99.6465 164.356 101.456 165.079 103.259 164.201 105.309 162.392 106.033" fill="#00ADEF" transform="matrix(1 0 0 1.00376 16.2387 154.197)"/><path d="M79.0797 139.31C77.2704 140.033 75.2202 139.154 74.5023 137.346 73.7786 135.543 74.6571 133.492 76.4665 132.768 78.2696 132.05 80.3203 132.929 81.044 134.732 81.7676 136.541 80.8828 138.592 79.0797 139.31" fill="#00ADEF" transform="matrix(1 0 0 1.00376 16.2387 154.197)"/><path d="M137.07 176.083C136.116 173.7 137.276 170.995 139.661 170.047 142.044 169.095 144.749 170.255 145.702 172.638 146.649 175.022 145.489 177.726 143.106 178.674 140.722 179.628 138.017 178.468 137.07 176.083" fill="#00ADEF" transform="matrix(1 0 0 1.00376 16.2387 154.197)"/><path d="M93.1623 66.1626C92.2086 63.7794 93.369 61.0745 95.7522 60.1265 98.136 59.1734 100.841 60.3332 101.788 62.717 102.742 65.1002 101.582 67.8052 99.1984 68.7531 96.8151 69.7067 94.1097 68.5464 93.1623 66.1626" fill="#00ADEF" transform="matrix(1 0 0 1.00376 16.2387 154.197)"/><path d="M7.90279-9.41899C7.90279-7.90279 8.45989-6.69671 9.57983-5.81225 10.694-4.92201 12.2964-4.47978 14.3813-4.47978 16.4488-4.47978 18.0225-4.80715 19.1137-5.46763 20.1992-6.13961 20.7448-7.13316 20.7448-8.45414 20.7448-9.21802 20.4576-9.88426 19.8948-10.4528 19.3434-11.0156 18.0167-11.5555 15.9205-12.0609L10.7055-13.2785C7.42609-14.0424 5.19195-15.0934 3.99734-16.4259 2.81423-17.7698 2.2284-19.6249 2.2284-21.9853 2.2284-24.7421 3.20476-26.9936 5.16897-28.7394 7.12741-30.497 10.068-31.3815 13.9907-31.3815 17.8962-31.3815 20.8483-30.3935 22.8584-28.4179 24.88-26.4537 25.8966-24.1506 25.9138-21.5029L19.78-21.5029C19.6421-23.002 19.0563-24.1448 18.034-24.926 17.0059-25.7071 15.4954-26.0975 13.5083-26.0975 11.9117-26.0975 10.6251-25.7644 9.64878-25.1097 8.68387-24.4492 8.20147-23.5591 8.20147-22.4448 8.20147-21.6638 8.41394-21.009 8.8447-20.4921 9.26971-19.9867 9.9589-19.6191 10.9123-19.3894L19.0907-17.3678C22.0428-16.644 24.0818-15.6046 25.2016-14.2434 26.333-12.8937 26.9016-11.2109 26.9016-9.18927 26.9016-5.86388 25.7414-3.36558 23.4327-1.70002 21.1182-0.0287165 18.2522 0.804063 14.8407 0.804063 10.4299 0.804063 7.14466-0.126352 4.98519-1.99867 2.8372-3.88248 1.76893-6.35209 1.76893-9.41899Z" fill="#01297F" transform="matrix(1 0 0 1.00376 210.867 291.823)"/><path d="M9.51094 0 3.12436 0 3.12436-30.5774 9.51094-30.5774Z" fill="#01297F" transform="matrix(1 0 0 1.00376 241.582 291.823)"/><path d="M32.7828 0 26.8098 0 26.8098-20.6529 26.9016-25.5692 26.7179-25.5692 20.9975 0 14.7488 0 9.16632-25.5692 9.02849-25.5692 9.09737-20.6529 9.09737 0 3.12436 0 3.12436-30.5774 12.4515-30.5774 17.965-6.47843 18.1029-6.47843 23.5246-30.5774 32.7828-30.5774Z" fill="#01297F" transform="matrix(1 0 0 1.00376 256.374 291.823)"/><path d="M15.438-16.3109C17.0577-16.3109 18.2522-16.6843 19.0218-17.4366 19.803-18.1834 20.1935-19.3549 20.1935-20.9515 20.1935-22.5424 19.7455-23.6681 18.861-24.3287 17.988-24.9834 16.6843-25.3165 14.9555-25.3165L9.51094-25.3165 9.51094-16.3109ZM9.51094 0 3.12436 0 3.12436-30.5774 17.0691-30.5774C19.9752-30.5774 22.2898-29.7044 24.0071-27.9584 25.7186-26.2125 26.58-23.8118 26.58-20.7678 26.58-18.1489 25.7357-15.863 24.053-13.9218 22.3817-11.9919 19.9695-11.0271 16.8164-11.0271L9.51094-11.0271Z" fill="#01297F" transform="matrix(1 0 0 1.00376 294.428 291.823)"/><path d="M9.51094-5.53655 24.6962-5.53655 24.6962 0 3.12436 0 3.12436-30.5774 9.51094-30.5774Z" fill="#01297F" transform="matrix(1 0 0 1.00376 324.728 291.823)"/><path d="M25.5921-25.1557 9.37305-25.1557 9.37305-18.7461 24.2827-18.7461 24.2827-13.3245 9.37305-13.3245 9.37305-5.39871 26.3273-5.39871 26.3273 0 3.12436 0 3.12436-30.5774 25.5921-30.5774Z" fill="#01297F" transform="matrix(1 0 0 1.00376 352.33 291.823)"/><path d="M11.0961-11.5785 18.884-11.5785 15.0704-23.6854 15.0015-23.6854ZM7.25956 0 0.528384 0 11.4177-30.5774 18.792-30.5774 29.5665 0 22.6286 0 20.6759-6.29464 9.37305-6.29464Z" fill="#01297F" transform="matrix(1 0 0 1.00376 396.294 291.823)"/><path d="M15.438-16.3109C17.0577-16.3109 18.2522-16.6843 19.0218-17.4366 19.803-18.1834 20.1935-19.3549 20.1935-20.9515 20.1935-22.5424 19.7455-23.6681 18.861-24.3287 17.988-24.9834 16.6843-25.3165 14.9555-25.3165L9.51094-25.3165 9.51094-16.3109ZM9.51094 0 3.12436 0 3.12436-30.5774 17.0691-30.5774C19.9752-30.5774 22.2898-29.7044 24.0071-27.9584 25.7186-26.2125 26.58-23.8118 26.58-20.7678 26.58-18.1489 25.7357-15.863 24.053-13.9218 22.3817-11.9919 19.9695-11.0271 16.8164-11.0271L9.51094-11.0271Z" fill="#01297F" transform="matrix(1 0 0 1.00376 428.552 291.823)"/><path d="M15.438-16.3109C17.0577-16.3109 18.2522-16.6843 19.0218-17.4366 19.803-18.1834 20.1935-19.3549 20.1935-20.9515 20.1935-22.5424 19.7455-23.6681 18.861-24.3287 17.988-24.9834 16.6843-25.3165 14.9555-25.3165L9.51094-25.3165 9.51094-16.3109ZM9.51094 0 3.12436 0 3.12436-30.5774 17.0691-30.5774C19.9752-30.5774 22.2898-29.7044 24.0071-27.9584 25.7186-26.2125 26.58-23.8118 26.58-20.7678 26.58-18.1489 25.7357-15.863 24.053-13.9218 22.3817-11.9919 19.9695-11.0271 16.8164-11.0271L9.51094-11.0271Z" fill="#01297F" transform="matrix(1 0 0 1.00376 458.853 291.823)"/></g></g></g></g><g clip-path="url(#clip5)"><g clip-path="url(#clip6)"><path d="M248.184 235.15C252.277 230.577 252.307 223.786 248.53 219.183 252.928 213.491 256.462 207.432 259.079 201.089 262.368 193.085 264.201 184.602 264.537 175.886 264.903 165.978 263.264 158.117 262.073 153.84 264.781 151.01 265.423 146.621 263.366 143.047 260.861 138.709 255.312 137.222 250.973 139.727 246.636 142.232 245.149 147.782 247.654 152.12 250.027 156.223 255.108 157.771 259.323 155.816 260.413 160.083 261.726 167.231 261.38 175.906 261.207 180.204 260.607 185.173 259.222 190.559 258.692 189.063 258.101 187.576 257.44 186.109 254.253 179.022 250.362 174.074 248.031 171.477 248.947 168.544 247.878 165.235 245.18 163.453 241.911 161.274 237.502 162.16 235.323 165.438 233.154 168.708 234.04 173.117 237.308 175.295 240.404 177.352 244.507 176.67 246.789 173.819 249.039 176.446 252.45 181.008 255.23 187.22 256.228 189.439 257.185 191.985 257.979 194.836 255.688 201.873 252.002 209.448 246.208 217.014 241.178 213.379 234.121 214.061 229.895 218.796 225.374 223.847 225.812 231.606 230.863 236.117 235.913 240.638 243.673 240.2 248.184 235.15" fill="#01297F" transform="matrix(1 0 0 1.00034 -123.767 63.9697)"/><path d="M209.652 254.985C215.66 256.238 221.556 252.868 223.643 247.287 230.781 248.265 237.797 248.296 244.589 247.379 253.173 246.228 261.441 243.581 269.15 239.508 277.917 234.875 283.904 229.518 287.01 226.362 290.818 227.288 294.943 225.649 297.01 222.075 299.505 217.737 298.028 212.188 293.68 209.693 289.342 207.188 283.802 208.664 281.298 213.002 278.925 217.106 280.127 222.289 283.935 224.957 280.768 228.032 275.239 232.747 267.562 236.779 263.753 238.785 259.14 240.75 253.784 242.247 254.823 241.035 255.81 239.773 256.747 238.469 261.289 232.166 263.641 226.321 264.721 223.012 267.714 222.34 270.036 219.753 270.249 216.526 270.494 212.615 267.51 209.235 263.6 208.98 259.68 208.735 256.299 211.709 256.055 215.629 255.821 219.336 258.468 222.554 262.062 223.104 260.912 226.372 258.672 231.606 254.68 237.115 253.255 239.09 251.534 241.198 249.466 243.306 242.227 244.844 233.826 245.434 224.366 244.202 224.997 238.031 220.874 232.258 214.672 230.954 208.033 229.57 201.537 233.826 200.151 240.465 198.767 247.094 203.013 253.601 209.652 254.985" fill="#00ADEF" transform="matrix(1 0 0 1.00034 -123.767 63.9697)"/><path d="M173.208 231.525C175.122 237.359 180.998 240.78 186.863 239.803 189.592 246.462 193.075 252.552 197.26 257.989 202.555 264.842 208.98 270.677 216.363 275.31 224.753 280.585 232.38 283.1 236.677 284.21 237.787 287.977 241.259 290.727 245.383 290.727 250.393 290.727 254.456 286.664 254.456 281.654 254.456 276.644 250.393 272.581 245.383 272.581 240.648 272.581 236.759 276.217 236.351 280.84 232.105 279.648 225.262 277.215 217.92 272.571 214.285 270.28 210.273 267.276 206.302 263.376 207.87 263.671 209.458 263.896 211.057 264.058 218.786 264.842 225.028 263.946 228.429 263.233 230.516 265.484 233.907 266.207 236.809 264.771 240.322 263.03 241.758 258.764 240.017 255.24 238.276 251.727 234.009 250.291 230.486 252.033 227.167 253.682 225.7 257.582 227.024 260.983 223.623 261.615 217.971 262.287 211.2 261.594 208.776 261.34 206.088 260.902 203.227 260.169 198.278 254.66 193.563 247.685 189.908 238.877 195.569 236.341 198.502 229.885 196.527 223.857 194.409 217.422 187.474 213.919 181.039 216.037 174.593 218.154 171.09 225.089 173.208 231.525" fill="#01297F" transform="matrix(1 0 0 1.00034 -123.767 63.9697)"/><path d="M175.306 188.238C171.212 192.81 171.182 199.602 174.97 204.205 170.561 209.896 167.027 215.955 164.41 222.299 161.121 230.302 159.288 238.785 158.953 247.502 158.586 257.409 160.225 265.27 161.417 269.547 158.708 272.378 158.067 276.767 160.123 280.34 162.628 284.679 168.178 286.165 172.516 283.66 176.854 281.155 178.34 275.606 175.835 271.268 173.463 267.164 168.381 265.616 164.166 267.571 163.076 263.305 161.763 256.157 162.109 247.481 162.282 243.184 162.883 238.214 164.268 232.828 164.797 234.335 165.388 235.811 166.05 237.278 169.237 244.365 173.137 249.324 175.459 251.91 174.542 254.843 175.622 258.153 178.309 259.934 181.579 262.114 185.988 261.228 188.166 257.949 190.346 254.68 189.45 250.271 186.181 248.092 183.095 246.035 178.982 246.717 176.701 249.568 174.45 246.941 171.039 242.379 168.26 236.168 167.261 233.948 166.304 231.402 165.51 228.551 167.801 221.515 171.487 213.939 177.281 206.373 182.311 210.008 189.368 209.326 193.604 204.591 198.115 199.541 197.677 191.782 192.627 187.27 187.576 182.749 179.816 183.187 175.306 188.238" fill="#00ADEF" transform="matrix(1 0 0 1.00034 -123.767 63.9697)"/><path d="M213.837 168.402C207.83 167.149 201.934 170.52 199.846 176.1 192.708 175.122 185.692 175.092 178.9 176.008 170.316 177.159 162.048 179.807 154.34 183.88 145.582 188.513 139.585 193.869 136.479 197.025 132.671 196.099 128.547 197.738 126.49 201.312 123.985 205.65 125.472 211.2 129.809 213.695 134.147 216.21 139.687 214.723 142.191 210.385 144.564 206.282 143.362 201.099 139.554 198.431 142.721 195.355 148.25 190.641 155.928 186.609 159.737 184.602 164.349 182.638 169.705 181.14 168.667 182.352 167.679 183.615 166.742 184.918 162.201 191.221 159.858 197.066 158.769 200.376 155.775 201.048 153.454 203.634 153.25 206.862 152.996 210.782 155.979 214.153 159.889 214.408 163.81 214.652 167.19 211.678 167.445 207.758 167.679 204.051 165.031 200.834 161.427 200.284 162.578 197.016 164.817 191.782 168.809 186.273 170.235 184.297 171.956 182.2 174.023 180.081 181.263 178.554 189.663 177.953 199.123 179.186 198.492 185.356 202.616 191.13 208.817 192.433 215.456 193.818 221.953 189.562 223.338 182.922 224.722 176.293 220.476 169.786 213.837 168.402" fill="#01297F" transform="matrix(1 0 0 1.00034 -123.767 63.9697)"/><path d="M250.281 191.863C248.367 186.028 242.491 182.607 236.626 183.584 233.897 176.925 230.415 170.836 226.229 165.408 220.935 158.545 214.509 152.721 207.127 148.077 198.736 142.803 191.109 140.287 186.812 139.177 185.713 135.41 182.23 132.671 178.106 132.671 173.096 132.671 169.033 136.723 169.033 141.734 169.033 146.743 173.096 150.806 178.106 150.806 182.841 150.806 186.731 147.171 187.138 142.548 191.384 143.739 198.227 146.183 205.569 150.816 209.204 153.107 213.216 156.112 217.187 160.012 215.619 159.716 214.031 159.492 212.432 159.329 204.703 158.545 198.471 159.441 195.06 160.154 192.973 157.903 189.582 157.181 186.68 158.616 183.167 160.358 181.731 164.624 183.472 168.147 185.214 171.66 189.48 173.096 193.003 171.355 196.333 169.705 197.789 165.805 196.466 162.404 199.866 161.773 205.518 161.101 212.299 161.794 214.713 162.048 217.401 162.486 220.263 163.219 225.211 168.728 229.926 175.703 233.581 184.511 227.92 187.046 224.987 193.502 226.963 199.53 229.081 205.966 236.015 209.469 242.451 207.351 248.896 205.233 252.399 198.298 250.281 191.863" fill="#00ADEF" transform="matrix(1 0 0 1.00034 -123.767 63.9697)"/><path d="M291.766 143.322C288.548 146.539 283.334 146.539 280.117 143.322 276.899 140.104 276.899 134.891 280.117 131.673 283.334 128.455 288.548 128.455 291.766 131.673 294.983 134.891 294.983 140.104 291.766 143.322" fill="#01297F" transform="matrix(1 0 0 1.00034 -123.767 63.9697)"/><path d="M143.373 291.714C140.155 294.932 134.941 294.932 131.723 291.714 128.506 288.497 128.506 283.283 131.723 280.066 134.941 276.848 140.155 276.848 143.373 280.066 146.591 283.283 146.591 288.497 143.373 291.714" fill="#01297F" transform="matrix(1 0 0 1.00034 -123.767 63.9697)"/><path d="M280.117 291.714C276.899 288.497 276.899 283.283 280.117 280.066 283.334 276.848 288.548 276.848 291.766 280.066 294.983 283.283 294.983 288.497 291.766 291.714 288.548 294.932 283.334 294.932 280.117 291.714" fill="#01297F" transform="matrix(1 0 0 1.00034 -123.767 63.9697)"/><path d="M131.723 143.322C128.506 140.104 128.506 134.891 131.723 131.673 134.941 128.455 140.155 128.455 143.373 131.673 146.591 134.891 146.591 140.104 143.373 143.322 140.155 146.539 134.941 146.539 131.723 143.322" fill="#01297F" transform="matrix(1 0 0 1.00034 -123.767 63.9697)"/><path d="M260.698 118.517C258.906 122.702 254.059 124.636 249.874 122.834 245.699 121.042 243.764 116.195 245.557 112.02 247.348 107.835 252.196 105.9 256.371 107.692 260.555 109.495 262.49 114.331 260.698 118.517" fill="#00ADEF" transform="matrix(1 0 0 1.00034 -123.767 63.9697)"/><path d="M177.933 311.367C176.141 315.553 171.294 317.487 167.119 315.695 162.934 313.892 160.999 309.056 162.791 304.871 164.583 300.686 169.43 298.751 173.615 300.553 177.8 302.345 179.735 307.193 177.933 311.367" fill="#00ADEF" transform="matrix(1 0 0 1.00034 -123.767 63.9697)"/><path d="M304.921 260.647C300.737 258.855 298.802 254.008 300.604 249.823 302.396 245.648 307.243 243.713 311.418 245.505 315.603 247.298 317.538 252.144 315.746 256.319 313.944 260.505 309.107 262.439 304.921 260.647" fill="#00ADEF" transform="matrix(1 0 0 1.00034 -123.767 63.9697)"/><path d="M112.071 177.882C107.886 176.09 105.951 171.243 107.744 167.068 109.546 162.883 114.383 160.948 118.568 162.74 122.753 164.533 124.688 169.379 122.885 173.565 121.093 177.75 116.246 179.684 112.071 177.882" fill="#00ADEF" transform="matrix(1 0 0 1.00034 -123.767 63.9697)"/><path d="M312.243 180.418C308.017 182.108 303.221 180.051 301.541 175.825 299.851 171.599 301.907 166.803 306.134 165.123 310.359 163.433 315.155 165.49 316.835 169.715 318.526 173.941 316.469 178.738 312.243 180.418" fill="#00ADEF" transform="matrix(1 0 0 1.00034 -123.767 63.9697)"/><path d="M117.356 258.275C113.13 259.955 108.334 257.898 106.654 253.672 104.963 249.446 107.021 244.65 111.246 242.97 115.472 241.28 120.268 243.337 121.949 247.562 123.639 251.788 121.582 256.584 117.356 258.275" fill="#00ADEF" transform="matrix(1 0 0 1.00034 -123.767 63.9697)"/><path d="M217.992 132.162C217.992 135.614 215.192 138.403 211.75 138.403 208.298 138.403 205.498 135.614 205.498 132.162 205.498 128.709 208.298 125.92 211.75 125.92 215.192 125.92 217.992 128.709 217.992 132.162" fill="#00ADEF" transform="matrix(1 0 0 1.00034 -123.767 63.9697)"/><path d="M217.992 291.226C217.992 294.678 215.192 297.468 211.75 297.468 208.298 297.468 205.498 294.678 205.498 291.226 205.498 287.774 208.298 284.984 211.75 284.984 215.192 284.984 217.992 287.774 217.992 291.226" fill="#00ADEF" transform="matrix(1 0 0 1.00034 -123.767 63.9697)"/><path d="M263.569 272.347C261.126 269.913 261.126 265.953 263.569 263.519 266.003 261.075 269.964 261.075 272.398 263.519 274.842 265.953 274.842 269.913 272.398 272.347 269.964 274.791 266.003 274.791 263.569 272.347" fill="#00ADEF" transform="matrix(1 0 0 1.00034 -123.767 63.9697)"/><path d="M151.091 159.869C148.658 157.435 148.658 153.484 151.091 151.04 153.535 148.607 157.486 148.607 159.92 151.04 162.363 153.484 162.363 157.435 159.92 159.869 157.486 162.313 153.535 162.313 151.091 159.869" fill="#00ADEF" transform="matrix(1 0 0 1.00034 -123.767 63.9697)"/><path d="M287.916 187.993C284.719 189.266 281.084 187.708 279.801 184.511 278.528 181.304 280.086 177.668 283.283 176.395 286.491 175.112 290.126 176.67 291.399 179.878 292.682 183.075 291.124 186.711 287.916 187.993" fill="#00ADEF" transform="matrix(1 0 0 1.00034 -123.767 63.9697)"/><path d="M140.206 246.992C136.998 248.275 133.363 246.717 132.09 243.51 130.807 240.312 132.365 236.677 135.573 235.394 138.77 234.121 142.405 235.679 143.689 238.877 144.971 242.084 143.403 245.719 140.206 246.992" fill="#00ADEF" transform="matrix(1 0 0 1.00034 -123.767 63.9697)"/><path d="M243.021 312.192C241.33 307.966 243.387 303.17 247.613 301.49 251.839 299.8 256.635 301.857 258.326 306.082 260.006 310.308 257.949 315.105 253.723 316.785 249.497 318.475 244.701 316.418 243.021 312.192" fill="#00ADEF" transform="matrix(1 0 0 1.00034 -123.767 63.9697)"/><path d="M165.174 117.305C163.483 113.079 165.54 108.283 169.767 106.603 173.992 104.913 178.788 106.969 180.468 111.195 182.159 115.421 180.102 120.217 175.876 121.897 171.65 123.588 166.854 121.531 165.174 117.305" fill="#00ADEF" transform="matrix(1 0 0 1.00034 -123.767 63.9697)"/><path d="M14.0114-16.6997C14.0114-14.0114 14.9992-11.8731 16.9848-10.3049 18.9602-8.72657 21.8012-7.94253 25.4975-7.94253 29.1633-7.94253 31.9534-8.52291 33.8881-9.69393 35.8126-10.8853 36.78-12.647 36.78-14.989 36.78-16.3433 36.2709-17.5245 35.273-18.5325 34.2954-19.5305 31.9432-20.4876 28.2265-21.3837L18.9806-23.5425C13.1663-24.8968 9.20521-26.7602 7.08716-29.1226 4.98953-31.5053 3.9509-34.7944 3.9509-38.9795 3.9509-43.8672 5.68196-47.8588 9.16444-50.9543 12.6368-54.0703 17.8503-55.6384 24.8051-55.6384 31.7294-55.6384 36.9633-53.887 40.5273-50.3841 44.1116-46.9016 45.9139-42.8183 45.9445-38.1241L35.0693-38.1241C34.8249-40.7818 33.7863-42.8081 31.9737-44.193 30.1511-45.5779 27.473-46.2703 23.9498-46.2703 21.119-46.2703 18.838-45.6797 17.107-44.5189 15.3963-43.3479 14.5409-41.7695 14.5409-39.7941 14.5409-38.4092 14.9177-37.2484 15.6814-36.3319 16.4349-35.4359 17.6568-34.7842 19.3472-34.3769L33.8474-30.7926C39.0813-29.5095 42.6962-27.6665 44.6818-25.2532 46.6878-22.8602 47.6959-19.8767 47.6959-16.2924 47.6959-10.3965 45.6389-5.96705 41.5455-3.01409 37.4419-0.0509135 32.3607 1.42558 26.3122 1.42558 18.4918 1.42558 12.6673-0.22402 8.83861-3.54359 5.03027-6.88351 3.13628-11.2621 3.13628-16.6997Z" fill="#01297F" transform="matrix(1 0 0 1.00034 221.302 307.145)"/><path d="M16.8626 0 5.5394 0 5.5394-54.2128 16.8626-54.2128Z" fill="#01297F" transform="matrix(1 0 0 1.00034 275.76 307.145)"/><path d="M58.123 0 47.533 0 47.533-36.6171 47.6959-45.3335 47.37-45.3335 37.228 0 26.1492 0 16.2516-45.3335 16.0072-45.3335 16.1294-36.6171 16.1294 0 5.5394 0 5.5394-54.2128 22.0761-54.2128 31.8515-11.4861 32.096-11.4861 41.7084-54.2128 58.123-54.2128Z" fill="#01297F" transform="matrix(1 0 0 1.00034 301.983 307.145)"/><path d="M27.3712-28.9189C30.2427-28.9189 32.3607-29.5808 33.7252-30.9148 35.11-32.2385 35.8025-34.3158 35.8025-37.1465 35.8025-39.9672 35.0082-41.963 33.4401-43.134 31.8923-44.2949 29.5808-44.8854 26.5158-44.8854L16.8626-44.8854 16.8626-28.9189ZM16.8626 0 5.5394 0 5.5394-54.2128 30.263-54.2128C35.4155-54.2128 39.5191-52.665 42.5638-49.5695 45.5982-46.4739 47.1257-42.2176 47.1257-36.8207 47.1257-32.1774 45.6288-28.1247 42.6453-24.6829 39.6821-21.2615 35.4053-19.5509 29.815-19.5509L16.8626-19.5509Z" fill="#01297F" transform="matrix(1 0 0 1.00034 369.455 307.145)"/><path d="M16.8626-9.81616 43.7857-9.81616 43.7857 0 5.5394 0 5.5394-54.2128 16.8626-54.2128Z" fill="#01297F" transform="matrix(1 0 0 1.00034 423.178 307.145)"/><path d="M45.3742-44.6003 16.6182-44.6003 16.6182-33.2364 43.0526-33.2364 43.0526-23.6239 16.6182-23.6239 16.6182-9.57175 46.6776-9.57175 46.6776 0 5.5394 0 5.5394-54.2128 45.3742-54.2128Z" fill="#01297F" transform="matrix(1 0 0 1.00034 472.107 307.145)"/><path d="M19.673-20.5283 33.4808-20.5283 26.7195-41.9935 26.5973-41.9935ZM12.8709 0 0.936809 0 20.2433-54.2128 33.3179-54.2128 52.4207 0 40.1199 0 36.6578-11.1603 16.6182-11.1603Z" fill="#01297F" transform="matrix(1 0 0 1.00034 550.06 307.145)"/><path d="M27.3712-28.9189C30.2427-28.9189 32.3607-29.5808 33.7252-30.9148 35.11-32.2385 35.8025-34.3158 35.8025-37.1465 35.8025-39.9672 35.0082-41.963 33.4401-43.134 31.8923-44.2949 29.5808-44.8854 26.5158-44.8854L16.8626-44.8854 16.8626-28.9189ZM16.8626 0 5.5394 0 5.5394-54.2128 30.263-54.2128C35.4155-54.2128 39.5191-52.665 42.5638-49.5695 45.5982-46.4739 47.1257-42.2176 47.1257-36.8207 47.1257-32.1774 45.6288-28.1247 42.6453-24.6829 39.6821-21.2615 35.4053-19.5509 29.815-19.5509L16.8626-19.5509Z" fill="#01297F" transform="matrix(1 0 0 1.00034 607.25 307.145)"/><path d="M27.3712-28.9189C30.2427-28.9189 32.3607-29.5808 33.7252-30.9148 35.11-32.2385 35.8025-34.3158 35.8025-37.1465 35.8025-39.9672 35.0082-41.963 33.4401-43.134 31.8923-44.2949 29.5808-44.8854 26.5158-44.8854L16.8626-44.8854 16.8626-28.9189ZM16.8626 0 5.5394 0 5.5394-54.2128 30.263-54.2128C35.4155-54.2128 39.5191-52.665 42.5638-49.5695 45.5982-46.4739 47.1257-42.2176 47.1257-36.8207 47.1257-32.1774 45.6288-28.1247 42.6453-24.6829 39.6821-21.2615 35.4053-19.5509 29.815-19.5509L16.8626-19.5509Z" fill="#01297F" transform="matrix(1 0 0 1.00034 660.973 307.145)"/></g></g></g></svg>